G04 EAGLE Gerber RS-274X export*
G75*
%MOMM*%
%FSLAX34Y34*%
%LPD*%
%IN*%
%IPPOS*%
%AMOC8*
5,1,8,0,0,1.08239X$1,22.5*%
G01*
%ADD10C,0.254000*%


D10*
X0Y0D02*
X799770Y0D01*
X799770Y400000D01*
X0Y400000D01*
X0Y0D01*
X45000Y29464D02*
X44924Y28396D01*
X44771Y27335D01*
X44543Y26288D01*
X44241Y25260D01*
X43867Y24256D01*
X43422Y23281D01*
X42908Y22341D01*
X42329Y21440D01*
X41687Y20582D01*
X40985Y19772D01*
X40228Y19015D01*
X39418Y18313D01*
X38560Y17671D01*
X37659Y17092D01*
X36719Y16578D01*
X35744Y16133D01*
X34740Y15759D01*
X33712Y15457D01*
X32665Y15229D01*
X31604Y15076D01*
X30536Y15000D01*
X29464Y15000D01*
X28396Y15076D01*
X27335Y15229D01*
X26288Y15457D01*
X25260Y15759D01*
X24256Y16133D01*
X23281Y16578D01*
X22341Y17092D01*
X21440Y17671D01*
X20582Y18313D01*
X19772Y19015D01*
X19015Y19772D01*
X18313Y20582D01*
X17671Y21440D01*
X17092Y22341D01*
X16578Y23281D01*
X16133Y24256D01*
X15759Y25260D01*
X15457Y26288D01*
X15229Y27335D01*
X15076Y28396D01*
X15000Y29464D01*
X15000Y30536D01*
X15076Y31604D01*
X15229Y32665D01*
X15457Y33712D01*
X15759Y34740D01*
X16133Y35744D01*
X16578Y36719D01*
X17092Y37659D01*
X17671Y38560D01*
X18313Y39418D01*
X19015Y40228D01*
X19772Y40985D01*
X20582Y41687D01*
X21440Y42329D01*
X22341Y42908D01*
X23281Y43422D01*
X24256Y43867D01*
X25260Y44241D01*
X26288Y44543D01*
X27335Y44771D01*
X28396Y44924D01*
X29464Y45000D01*
X30536Y45000D01*
X31604Y44924D01*
X32665Y44771D01*
X33712Y44543D01*
X34740Y44241D01*
X35744Y43867D01*
X36719Y43422D01*
X37659Y42908D01*
X38560Y42329D01*
X39418Y41687D01*
X40228Y40985D01*
X40985Y40228D01*
X41687Y39418D01*
X42329Y38560D01*
X42908Y37659D01*
X43422Y36719D01*
X43867Y35744D01*
X44241Y34740D01*
X44543Y33712D01*
X44771Y32665D01*
X44924Y31604D01*
X45000Y30536D01*
X45000Y29464D01*
X45000Y369464D02*
X44924Y368396D01*
X44771Y367335D01*
X44543Y366288D01*
X44241Y365260D01*
X43867Y364256D01*
X43422Y363281D01*
X42908Y362341D01*
X42329Y361440D01*
X41687Y360582D01*
X40985Y359772D01*
X40228Y359015D01*
X39418Y358313D01*
X38560Y357671D01*
X37659Y357092D01*
X36719Y356578D01*
X35744Y356133D01*
X34740Y355759D01*
X33712Y355457D01*
X32665Y355229D01*
X31604Y355076D01*
X30536Y355000D01*
X29464Y355000D01*
X28396Y355076D01*
X27335Y355229D01*
X26288Y355457D01*
X25260Y355759D01*
X24256Y356133D01*
X23281Y356578D01*
X22341Y357092D01*
X21440Y357671D01*
X20582Y358313D01*
X19772Y359015D01*
X19015Y359772D01*
X18313Y360582D01*
X17671Y361440D01*
X17092Y362341D01*
X16578Y363281D01*
X16133Y364256D01*
X15759Y365260D01*
X15457Y366288D01*
X15229Y367335D01*
X15076Y368396D01*
X15000Y369464D01*
X15000Y370536D01*
X15076Y371604D01*
X15229Y372665D01*
X15457Y373712D01*
X15759Y374740D01*
X16133Y375744D01*
X16578Y376719D01*
X17092Y377659D01*
X17671Y378560D01*
X18313Y379418D01*
X19015Y380228D01*
X19772Y380985D01*
X20582Y381687D01*
X21440Y382329D01*
X22341Y382908D01*
X23281Y383422D01*
X24256Y383867D01*
X25260Y384241D01*
X26288Y384543D01*
X27335Y384771D01*
X28396Y384924D01*
X29464Y385000D01*
X30536Y385000D01*
X31604Y384924D01*
X32665Y384771D01*
X33712Y384543D01*
X34740Y384241D01*
X35744Y383867D01*
X36719Y383422D01*
X37659Y382908D01*
X38560Y382329D01*
X39418Y381687D01*
X40228Y380985D01*
X40985Y380228D01*
X41687Y379418D01*
X42329Y378560D01*
X42908Y377659D01*
X43422Y376719D01*
X43867Y375744D01*
X44241Y374740D01*
X44543Y373712D01*
X44771Y372665D01*
X44924Y371604D01*
X45000Y370536D01*
X45000Y369464D01*
X785000Y369464D02*
X784924Y368396D01*
X784771Y367335D01*
X784543Y366288D01*
X784241Y365260D01*
X783867Y364256D01*
X783422Y363281D01*
X782908Y362341D01*
X782329Y361440D01*
X781687Y360582D01*
X780985Y359772D01*
X780228Y359015D01*
X779418Y358313D01*
X778560Y357671D01*
X777659Y357092D01*
X776719Y356578D01*
X775744Y356133D01*
X774740Y355759D01*
X773712Y355457D01*
X772665Y355229D01*
X771604Y355076D01*
X770536Y355000D01*
X769464Y355000D01*
X768396Y355076D01*
X767335Y355229D01*
X766288Y355457D01*
X765260Y355759D01*
X764256Y356133D01*
X763281Y356578D01*
X762341Y357092D01*
X761440Y357671D01*
X760582Y358313D01*
X759772Y359015D01*
X759015Y359772D01*
X758313Y360582D01*
X757671Y361440D01*
X757092Y362341D01*
X756578Y363281D01*
X756133Y364256D01*
X755759Y365260D01*
X755457Y366288D01*
X755229Y367335D01*
X755076Y368396D01*
X755000Y369464D01*
X755000Y370536D01*
X755076Y371604D01*
X755229Y372665D01*
X755457Y373712D01*
X755759Y374740D01*
X756133Y375744D01*
X756578Y376719D01*
X757092Y377659D01*
X757671Y378560D01*
X758313Y379418D01*
X759015Y380228D01*
X759772Y380985D01*
X760582Y381687D01*
X761440Y382329D01*
X762341Y382908D01*
X763281Y383422D01*
X764256Y383867D01*
X765260Y384241D01*
X766288Y384543D01*
X767335Y384771D01*
X768396Y384924D01*
X769464Y385000D01*
X770536Y385000D01*
X771604Y384924D01*
X772665Y384771D01*
X773712Y384543D01*
X774740Y384241D01*
X775744Y383867D01*
X776719Y383422D01*
X777659Y382908D01*
X778560Y382329D01*
X779418Y381687D01*
X780228Y380985D01*
X780985Y380228D01*
X781687Y379418D01*
X782329Y378560D01*
X782908Y377659D01*
X783422Y376719D01*
X783867Y375744D01*
X784241Y374740D01*
X784543Y373712D01*
X784771Y372665D01*
X784924Y371604D01*
X785000Y370536D01*
X785000Y369464D01*
X785000Y29464D02*
X784924Y28396D01*
X784771Y27335D01*
X784543Y26288D01*
X784241Y25260D01*
X783867Y24256D01*
X783422Y23281D01*
X782908Y22341D01*
X782329Y21440D01*
X781687Y20582D01*
X780985Y19772D01*
X780228Y19015D01*
X779418Y18313D01*
X778560Y17671D01*
X777659Y17092D01*
X776719Y16578D01*
X775744Y16133D01*
X774740Y15759D01*
X773712Y15457D01*
X772665Y15229D01*
X771604Y15076D01*
X770536Y15000D01*
X769464Y15000D01*
X768396Y15076D01*
X767335Y15229D01*
X766288Y15457D01*
X765260Y15759D01*
X764256Y16133D01*
X763281Y16578D01*
X762341Y17092D01*
X761440Y17671D01*
X760582Y18313D01*
X759772Y19015D01*
X759015Y19772D01*
X758313Y20582D01*
X757671Y21440D01*
X757092Y22341D01*
X756578Y23281D01*
X756133Y24256D01*
X755759Y25260D01*
X755457Y26288D01*
X755229Y27335D01*
X755076Y28396D01*
X755000Y29464D01*
X755000Y30536D01*
X755076Y31604D01*
X755229Y32665D01*
X755457Y33712D01*
X755759Y34740D01*
X756133Y35744D01*
X756578Y36719D01*
X757092Y37659D01*
X757671Y38560D01*
X758313Y39418D01*
X759015Y40228D01*
X759772Y40985D01*
X760582Y41687D01*
X761440Y42329D01*
X762341Y42908D01*
X763281Y43422D01*
X764256Y43867D01*
X765260Y44241D01*
X766288Y44543D01*
X767335Y44771D01*
X768396Y44924D01*
X769464Y45000D01*
X770536Y45000D01*
X771604Y44924D01*
X772665Y44771D01*
X773712Y44543D01*
X774740Y44241D01*
X775744Y43867D01*
X776719Y43422D01*
X777659Y42908D01*
X778560Y42329D01*
X779418Y41687D01*
X780228Y40985D01*
X780985Y40228D01*
X781687Y39418D01*
X782329Y38560D01*
X782908Y37659D01*
X783422Y36719D01*
X783867Y35744D01*
X784241Y34740D01*
X784543Y33712D01*
X784771Y32665D01*
X784924Y31604D01*
X785000Y30536D01*
X785000Y29464D01*
M02*
