G04 EAGLE Gerber RS-274X export*
G75*
%MOMM*%
%FSLAX34Y34*%
%LPD*%
%INSoldermask Bottom*%
%IPPOS*%
%AMOC8*
5,1,8,0,0,1.08239X$1,22.5*%
G01*
%ADD10C,3.203200*%
%ADD11P,1.897646X8X22.500000*%
%ADD12P,1.798066X8X292.500000*%
%ADD13C,3.519200*%
%ADD14C,1.727200*%
%ADD15C,1.524000*%
%ADD16C,1.993900*%


D10*
X30000Y30000D03*
X30000Y370000D03*
X770000Y370000D03*
X770000Y30000D03*
D11*
X481800Y38400D03*
X481800Y63800D03*
X507200Y38400D03*
X507200Y63800D03*
X532600Y38400D03*
X532600Y63800D03*
D12*
X110600Y114500D03*
X110600Y139500D03*
X90600Y139500D03*
X90600Y114500D03*
D13*
X63500Y187200D03*
X63500Y66800D03*
D14*
X621068Y71506D02*
X636308Y71506D01*
X636308Y26294D02*
X621068Y26294D01*
X686092Y71506D02*
X701332Y71506D01*
X701332Y26294D02*
X686092Y26294D01*
X742380Y81900D02*
X757620Y81900D01*
X757620Y107300D02*
X742380Y107300D01*
X742380Y132700D02*
X757620Y132700D01*
X757620Y158100D02*
X742380Y158100D01*
D15*
X672700Y201496D02*
X672700Y214704D01*
X647300Y214704D02*
X647300Y201496D01*
X647300Y138504D02*
X647300Y125296D01*
X672700Y125296D02*
X672700Y138504D01*
D14*
X742380Y211900D02*
X757620Y211900D01*
X757620Y237300D02*
X742380Y237300D01*
X742380Y262700D02*
X757620Y262700D01*
X757620Y288100D02*
X742380Y288100D01*
D16*
X395000Y343747D02*
X395000Y361654D01*
X345000Y361654D02*
X345000Y343747D01*
X695000Y343747D02*
X695000Y361654D01*
X645000Y361654D02*
X645000Y343747D01*
D14*
X283500Y352380D02*
X283500Y367620D01*
X258100Y367620D02*
X258100Y352380D01*
X232700Y352380D02*
X232700Y367620D01*
X207300Y367620D02*
X207300Y352380D01*
X181900Y352380D02*
X181900Y367620D01*
X156500Y367620D02*
X156500Y352380D01*
X583500Y352380D02*
X583500Y367620D01*
X558100Y367620D02*
X558100Y352380D01*
X532700Y352380D02*
X532700Y367620D01*
X507300Y367620D02*
X507300Y352380D01*
X481900Y352380D02*
X481900Y367620D01*
X456500Y367620D02*
X456500Y352380D01*
M02*
