G04 EAGLE Gerber RS-274X export*
G75*
%MOMM*%
%FSLAX34Y34*%
%LPD*%
%INSolderpaste Top*%
%IPPOS*%
%AMOC8*
5,1,8,0,0,1.08239X$1,22.5*%
G01*
%ADD10R,1.500000X1.300000*%
%ADD11R,1.300000X1.500000*%
%ADD12R,2.400000X1.600000*%
%ADD13R,1.400000X1.800000*%
%ADD14R,3.400000X1.900000*%
%ADD15C,1.016000*%
%ADD16R,1.000000X1.200000*%
%ADD17R,1.200000X1.200000*%
%ADD18C,0.360000*%
%ADD19C,1.000000*%
%ADD20R,1.050000X1.300000*%
%ADD21R,1.400000X1.200000*%
%ADD22R,1.600200X1.168400*%


D10*
X162090Y43430D03*
X162090Y60430D03*
D11*
X527500Y148000D03*
X544500Y148000D03*
X567500Y148000D03*
X584500Y148000D03*
X567500Y220000D03*
X584500Y220000D03*
D10*
X267700Y154800D03*
X267700Y171800D03*
X297860Y171860D03*
X297860Y154860D03*
X418870Y94790D03*
X418870Y77790D03*
D12*
X157500Y278200D03*
X157500Y308200D03*
D11*
X101500Y330000D03*
X118500Y330000D03*
D13*
X221700Y272500D03*
X255700Y272500D03*
D14*
X215600Y42700D03*
X215600Y81700D03*
D15*
X349000Y130000D03*
X70000Y30000D03*
X740000Y340000D03*
D16*
X252300Y223100D03*
X252300Y201100D03*
D17*
X51300Y310600D03*
X30300Y310600D03*
D10*
X535200Y193780D03*
X535200Y176780D03*
D17*
X30300Y242500D03*
X51300Y242500D03*
X30300Y274400D03*
X51300Y274400D03*
D18*
X367850Y136600D02*
X367850Y126200D01*
X366950Y126200D01*
X366950Y136600D01*
X367850Y136600D01*
X367850Y129620D02*
X366950Y129620D01*
X366950Y133040D02*
X367850Y133040D01*
X367850Y136460D02*
X366950Y136460D01*
X375850Y136600D02*
X375850Y126200D01*
X374950Y126200D01*
X374950Y136600D01*
X375850Y136600D01*
X375850Y129620D02*
X374950Y129620D01*
X374950Y133040D02*
X375850Y133040D01*
X375850Y136460D02*
X374950Y136460D01*
X383850Y136600D02*
X383850Y126200D01*
X382950Y126200D01*
X382950Y136600D01*
X383850Y136600D01*
X383850Y129620D02*
X382950Y129620D01*
X382950Y133040D02*
X383850Y133040D01*
X383850Y136460D02*
X382950Y136460D01*
X391850Y136600D02*
X391850Y126200D01*
X390950Y126200D01*
X390950Y136600D01*
X391850Y136600D01*
X391850Y129620D02*
X390950Y129620D01*
X390950Y133040D02*
X391850Y133040D01*
X391850Y136460D02*
X390950Y136460D01*
X399850Y136600D02*
X399850Y126200D01*
X398950Y126200D01*
X398950Y136600D01*
X399850Y136600D01*
X399850Y129620D02*
X398950Y129620D01*
X398950Y133040D02*
X399850Y133040D01*
X399850Y136460D02*
X398950Y136460D01*
X407850Y136600D02*
X407850Y126200D01*
X406950Y126200D01*
X406950Y136600D01*
X407850Y136600D01*
X407850Y129620D02*
X406950Y129620D01*
X406950Y133040D02*
X407850Y133040D01*
X407850Y136460D02*
X406950Y136460D01*
X415850Y136600D02*
X415850Y126200D01*
X414950Y126200D01*
X414950Y136600D01*
X415850Y136600D01*
X415850Y129620D02*
X414950Y129620D01*
X414950Y133040D02*
X415850Y133040D01*
X415850Y136460D02*
X414950Y136460D01*
X423850Y136600D02*
X423850Y126200D01*
X422950Y126200D01*
X422950Y136600D01*
X423850Y136600D01*
X423850Y129620D02*
X422950Y129620D01*
X422950Y133040D02*
X423850Y133040D01*
X423850Y136460D02*
X422950Y136460D01*
X431850Y136600D02*
X431850Y126200D01*
X430950Y126200D01*
X430950Y136600D01*
X431850Y136600D01*
X431850Y129620D02*
X430950Y129620D01*
X430950Y133040D02*
X431850Y133040D01*
X431850Y136460D02*
X430950Y136460D01*
X439850Y136600D02*
X439850Y126200D01*
X438950Y126200D01*
X438950Y136600D01*
X439850Y136600D01*
X439850Y129620D02*
X438950Y129620D01*
X438950Y133040D02*
X439850Y133040D01*
X439850Y136460D02*
X438950Y136460D01*
X447850Y136600D02*
X447850Y126200D01*
X446950Y126200D01*
X446950Y136600D01*
X447850Y136600D01*
X447850Y129620D02*
X446950Y129620D01*
X446950Y133040D02*
X447850Y133040D01*
X447850Y136460D02*
X446950Y136460D01*
X470600Y148950D02*
X470600Y149850D01*
X470600Y148950D02*
X460200Y148950D01*
X460200Y149850D01*
X470600Y149850D01*
X470600Y156950D02*
X470600Y157850D01*
X470600Y156950D02*
X460200Y156950D01*
X460200Y157850D01*
X470600Y157850D01*
X470600Y164950D02*
X470600Y165850D01*
X470600Y164950D02*
X460200Y164950D01*
X460200Y165850D01*
X470600Y165850D01*
X470600Y172950D02*
X470600Y173850D01*
X470600Y172950D02*
X460200Y172950D01*
X460200Y173850D01*
X470600Y173850D01*
X470600Y180950D02*
X470600Y181850D01*
X470600Y180950D02*
X460200Y180950D01*
X460200Y181850D01*
X470600Y181850D01*
X470600Y188950D02*
X470600Y189850D01*
X470600Y188950D02*
X460200Y188950D01*
X460200Y189850D01*
X470600Y189850D01*
X470600Y196950D02*
X470600Y197850D01*
X470600Y196950D02*
X460200Y196950D01*
X460200Y197850D01*
X470600Y197850D01*
X470600Y204950D02*
X470600Y205850D01*
X470600Y204950D02*
X460200Y204950D01*
X460200Y205850D01*
X470600Y205850D01*
X470600Y212950D02*
X470600Y213850D01*
X470600Y212950D02*
X460200Y212950D01*
X460200Y213850D01*
X470600Y213850D01*
X470600Y220950D02*
X470600Y221850D01*
X470600Y220950D02*
X460200Y220950D01*
X460200Y221850D01*
X470600Y221850D01*
X470600Y228950D02*
X470600Y229850D01*
X470600Y228950D02*
X460200Y228950D01*
X460200Y229850D01*
X470600Y229850D01*
X447850Y242200D02*
X447850Y252600D01*
X447850Y242200D02*
X446950Y242200D01*
X446950Y252600D01*
X447850Y252600D01*
X447850Y245620D02*
X446950Y245620D01*
X446950Y249040D02*
X447850Y249040D01*
X447850Y252460D02*
X446950Y252460D01*
X439850Y252600D02*
X439850Y242200D01*
X438950Y242200D01*
X438950Y252600D01*
X439850Y252600D01*
X439850Y245620D02*
X438950Y245620D01*
X438950Y249040D02*
X439850Y249040D01*
X439850Y252460D02*
X438950Y252460D01*
X431850Y252600D02*
X431850Y242200D01*
X430950Y242200D01*
X430950Y252600D01*
X431850Y252600D01*
X431850Y245620D02*
X430950Y245620D01*
X430950Y249040D02*
X431850Y249040D01*
X431850Y252460D02*
X430950Y252460D01*
X423850Y252600D02*
X423850Y242200D01*
X422950Y242200D01*
X422950Y252600D01*
X423850Y252600D01*
X423850Y245620D02*
X422950Y245620D01*
X422950Y249040D02*
X423850Y249040D01*
X423850Y252460D02*
X422950Y252460D01*
X415850Y252600D02*
X415850Y242200D01*
X414950Y242200D01*
X414950Y252600D01*
X415850Y252600D01*
X415850Y245620D02*
X414950Y245620D01*
X414950Y249040D02*
X415850Y249040D01*
X415850Y252460D02*
X414950Y252460D01*
X407850Y252600D02*
X407850Y242200D01*
X406950Y242200D01*
X406950Y252600D01*
X407850Y252600D01*
X407850Y245620D02*
X406950Y245620D01*
X406950Y249040D02*
X407850Y249040D01*
X407850Y252460D02*
X406950Y252460D01*
X399850Y252600D02*
X399850Y242200D01*
X398950Y242200D01*
X398950Y252600D01*
X399850Y252600D01*
X399850Y245620D02*
X398950Y245620D01*
X398950Y249040D02*
X399850Y249040D01*
X399850Y252460D02*
X398950Y252460D01*
X391850Y252600D02*
X391850Y242200D01*
X390950Y242200D01*
X390950Y252600D01*
X391850Y252600D01*
X391850Y245620D02*
X390950Y245620D01*
X390950Y249040D02*
X391850Y249040D01*
X391850Y252460D02*
X390950Y252460D01*
X383850Y252600D02*
X383850Y242200D01*
X382950Y242200D01*
X382950Y252600D01*
X383850Y252600D01*
X383850Y245620D02*
X382950Y245620D01*
X382950Y249040D02*
X383850Y249040D01*
X383850Y252460D02*
X382950Y252460D01*
X375850Y252600D02*
X375850Y242200D01*
X374950Y242200D01*
X374950Y252600D01*
X375850Y252600D01*
X375850Y245620D02*
X374950Y245620D01*
X374950Y249040D02*
X375850Y249040D01*
X375850Y252460D02*
X374950Y252460D01*
X367850Y252600D02*
X367850Y242200D01*
X366950Y242200D01*
X366950Y252600D01*
X367850Y252600D01*
X367850Y245620D02*
X366950Y245620D01*
X366950Y249040D02*
X367850Y249040D01*
X367850Y252460D02*
X366950Y252460D01*
X354600Y229850D02*
X354600Y228950D01*
X344200Y228950D01*
X344200Y229850D01*
X354600Y229850D01*
X354600Y221850D02*
X354600Y220950D01*
X344200Y220950D01*
X344200Y221850D01*
X354600Y221850D01*
X354600Y213850D02*
X354600Y212950D01*
X344200Y212950D01*
X344200Y213850D01*
X354600Y213850D01*
X354600Y205850D02*
X354600Y204950D01*
X344200Y204950D01*
X344200Y205850D01*
X354600Y205850D01*
X354600Y197850D02*
X354600Y196950D01*
X344200Y196950D01*
X344200Y197850D01*
X354600Y197850D01*
X354600Y189850D02*
X354600Y188950D01*
X344200Y188950D01*
X344200Y189850D01*
X354600Y189850D01*
X354600Y181850D02*
X354600Y180950D01*
X344200Y180950D01*
X344200Y181850D01*
X354600Y181850D01*
X354600Y173850D02*
X354600Y172950D01*
X344200Y172950D01*
X344200Y173850D01*
X354600Y173850D01*
X354600Y165850D02*
X354600Y164950D01*
X344200Y164950D01*
X344200Y165850D01*
X354600Y165850D01*
X354600Y157850D02*
X354600Y156950D01*
X344200Y156950D01*
X344200Y157850D01*
X354600Y157850D01*
X354600Y149850D02*
X354600Y148950D01*
X344200Y148950D01*
X344200Y149850D01*
X354600Y149850D01*
D19*
X407400Y189400D03*
D20*
X566750Y196780D03*
X566750Y173780D03*
X585250Y173780D03*
X585250Y196780D03*
D21*
X162000Y127450D03*
X162000Y105450D03*
X162000Y145190D03*
X162000Y167190D03*
D11*
X365580Y67460D03*
X384580Y67460D03*
X365470Y89450D03*
X384470Y89450D03*
X100500Y300000D03*
X119500Y300000D03*
X100500Y240000D03*
X119500Y240000D03*
X100500Y270000D03*
X119500Y270000D03*
X248200Y244400D03*
X229200Y244400D03*
D22*
X498000Y214760D03*
X498000Y230000D03*
X498000Y245240D03*
X530000Y214760D03*
X530000Y230000D03*
X530000Y245240D03*
D10*
X565000Y96500D03*
X565000Y115500D03*
X589000Y115500D03*
X589000Y96500D03*
X480000Y300500D03*
X480000Y319500D03*
X570000Y300500D03*
X570000Y319500D03*
X600000Y300500D03*
X600000Y319500D03*
X450000Y300500D03*
X450000Y319500D03*
D11*
X320500Y260000D03*
X339500Y260000D03*
D15*
X70000Y340000D03*
M02*
