M48
;GenerationSoftware,Autodesk,EAGLE,9.6.0*%
;CreationDate,2020-11-10T15:50:22Z*%
FMAT,2
ICI,OFF
METRIC,TZ,000.000
T7C0.610
T6C0.813
T5C0.950
T4C1.016
T3C1.194
T2C2.300
T1C3.000
%
G90
M71
T1
X3000Y3000
X3000Y37000
X77000Y37000
X77000Y3000
T2
X6350Y6680
X6350Y18720
T3
X64500Y35270
X69500Y35270
X34500Y35270
X39500Y35270
T4
X75000Y15810
X58350Y36000
X62869Y2629
X55810Y36000
X53270Y36000
X50730Y36000
X48190Y36000
X45650Y36000
X62869Y7151
X69371Y7151
X69371Y2629
X75000Y8190
X75000Y10730
X75000Y13270
X15650Y36000
X75000Y21190
X75000Y23730
X75000Y26270
X75000Y28810
X28350Y36000
X25810Y36000
X23270Y36000
X20730Y36000
X18190Y36000
T5
X53260Y6380
X48180Y6380
X50720Y3840
X50720Y6380
X53260Y3840
X11060Y11450
X9060Y11450
X48180Y3840
X9060Y13950
X11060Y13950
T6
X67270Y20810
X64730Y20810
X64730Y13190
X67270Y13190
T7
X19000Y30000
X3175Y22352
X29000Y27000
X51400Y23000
X55100Y23700
X24000Y16000
X24000Y6000
X20000Y11000
X31000Y7000
X18000Y6000
X27500Y19473
X36700Y17100
X40894Y6096
X42000Y31000
X43200Y27300
X3382Y33655
X10000Y37000
X30000Y20000
X29900Y12700
X38600Y15000
X18000Y25000
X18000Y19000
X33800Y28600
X16000Y33000
X31800Y2600
X49400Y12200
X45500Y7600
X37700Y19100
X37000Y22900
X44900Y17300
X46100Y12100
X58800Y6700
X55800Y4700
X28131Y24447
X44577Y15637
X50705Y8255
X48547Y8673
X40700Y22100
X49000Y15000
X62000Y17000
X31965Y18000
X58000Y28000
X33235Y18000
X54000Y11000
X53000Y10000
X39000Y21000
X6032Y21273
X41593Y15005
X37500Y26600
X44000Y20600
X50000Y30000
X41827Y20827
X37600Y29100
M30