%
M48
M72
T01C0.02400
T02C0.03200
T03C0.03740
T04C0.04000
T05C0.04700
T06C0.09055
T07C0.11811
%
T01
X123578Y71925
X147200Y71925
X174759Y75862
X177909Y58539
X213712Y72303
X231846Y78224
X243844Y82447
X252338Y80803
X261373Y87673
X265310Y91610
X247200Y96335
X234208Y95941
X245625Y107358
X228212Y109866
X216462Y107378
X204680Y107358
X197200Y115626
X201137Y123500
X206255Y130980
X212948Y135311
X217387Y130301
X225940Y129406
X229484Y116413
X255074Y138854
X269641Y141610
X281058Y158539
X249562Y166413
X222791Y155783
X200350Y153028
X185783Y160902
X200743Y162870
X218066Y170350
X166885Y154602
X163465Y144553
X170822Y127043
X160980Y124969
X178558Y119169
X183558Y119169
X198381Y138461
X147200Y111295
X123578Y123106
X123578Y146728
X127515Y166413
X115704Y178224
X92082Y193972
X66027Y180803
X65212Y136303
X76462Y132053
X131452Y91610
X170428Y98303
X272397Y66807
X284208Y74681
X296806Y115232
T02
X307554Y100232
X317554Y100232
X317554Y130232
X307554Y130232
T03
X262397Y73421
X252397Y73421
X242397Y73421
X242397Y63421
X252397Y63421
X262397Y63421
X96255Y93382
X88381Y93382
X88381Y103224
X96255Y103224
T04
X114326Y190035
X124326Y190035
X134326Y190035
X144326Y190035
X154326Y190035
X164326Y190035
X232436Y190035
X242436Y190035
X252436Y190035
X262436Y190035
X272436Y190035
X282436Y190035
X347987Y161728
X347987Y151728
X347987Y141728
X347987Y131728
X347987Y110547
X347987Y100547
X347987Y90547
X347987Y80547
X325827Y76455
X300227Y76455
X300227Y58655
X325827Y58655
T05
X326334Y187161
X306649Y187161
X208224Y187161
X188539Y187161
T06
X77712Y122004
X77712Y74602
T07
X64523Y60114
X64523Y193972
X355861Y193972
X355861Y60114
M30
